<svg version="1.1" id="Vrstva_1" xmlns="http://www.w3.org/2000/svg" xmlns:xlink="http://www.w3.org/1999/xlink" x="0px" y="0px"
	 width="717.167px" height="353.62px" viewBox="0 0 717.167 353.62" enable-background="new 0 0 717.167 353.62"
	 xml:space="preserve">
<path fill="#FFFFFF" d="M476.124,7.627c7.336-3.039,14.805-5.898,22.582-7.627c0.059,4.008-0.01,8.017-0.01,12.026
	c-36.098,7.927-69.309,29.399-90.23,59.988c2.811-9.317,8.398-17.564,14.246-25.241C436.616,29.24,455.69,16.404,476.124,7.627
	L476.124,7.627z"/>
<path fill="#FFFFFF" d="M450.083,39.216c21.162-13.105,45.113-21.512,69.646-25.451c-0.02,5.039-0.16,10.077-0.531,15.104
	c-38.445,2.6-75.344,19.713-103.244,46.104c-2.709,2.619-5.258,5.398-8.018,7.967C417.594,64.797,432.758,50.052,450.083,39.216
	L450.083,39.216z"/>
<path fill="#FFFFFF" d="M454.129,55.371c25.393-13.555,53.914-22.302,82.883-21.752c0.021,5.698,0.051,11.386-0.02,17.084
	c-22.682,0.09-44.834,6.068-66.309,12.866c-21.521,6.928-42.225,16.094-62.738,25.521C421.461,75.543,437.426,64.607,454.129,55.371
	L454.129,55.371z"/>
<path fill="#FFFFFF" d="M518.979,171.99c-18.844,23.042-37.566,46.174-56.42,69.186c-17.154-23.781-34.559-47.383-51.693-71.185
	c-0.91-1.649-3.1-1.419-4.639-2.029c0.01-24.251,0.01-48.513,0-72.765c-27.76-13.076-56.8-23.492-86.76-30.22
	c-19.454-4.128-39.237-7.577-59.189-7.307c-0.05,67.086-0.03,134.184-0.01,201.28c31.399,0.7,62.298,7.548,92.268,16.554
	c18.165,5.699,36.229,11.877,53.624,19.664c0.219-9.248-0.24-18.514,0.469-27.75c0.23-21.883,1.969-43.746,1.418-65.628
	c2.689,7.098,7.508,13.036,11.746,19.233c12.246,17.555,24.613,35.018,36.729,52.652c1.959,0.09,3.928,0.16,5.898,0.199
	c14.994-18.823,30.15-37.518,45.174-56.32c3.029-3.738,5.389-7.967,7.449-12.307c-1.451,11.337-1.121,22.773-1.811,34.159
	c-0.34,16.774-1.1,33.538-1.48,50.323c8.418,0.34,16.854,0.229,25.262,0.879c0.818-8.357,0.668-16.754,0.969-25.141
	c1.119-30.881,2-61.76,3.08-92.639C533.692,172.59,526.346,172.04,518.979,171.99z M385.704,184.387
	c-0.988,12.584-0.471,25.24-1.438,37.826c-0.291,10.217-0.221,20.463-1.031,30.659c-5.988-0.03-11.965-0.36-17.943-0.81
	c0.909-11.137,0.381-22.352,1.249-33.488c0.439-9.307,0.02-18.654,1.399-27.891c-3.018,7.217-8.477,12.916-13.245,18.994
	c-8.367,10.396-16.704,20.832-25.091,31.219c-1.339-0.029-2.669-0.061-3.988-0.09c-10.137-14.665-20.433-29.22-30.62-43.846
	c-1.86-2.648-3.539-5.527-3.849-8.826c-1.41,14.365-0.75,28.83-1.77,43.225c-0.27,6.158-0.2,12.326-0.44,18.484
	c-5.308-0.061-10.606-0.34-15.895-0.711c0.939-15.224,0.75-30.479,1.699-45.693c0.08-12.876,0.86-25.722,1.14-38.597
	c5.218,0.14,10.436,0.26,15.654,0.37c12.776,17.325,25.262,34.877,38.098,52.153c1.109-0.811,2.059-1.83,2.939-2.879
	c12.596-15.546,25.271-31.03,37.896-46.565c5.199,0.13,10.396,0.31,15.604,0.38C385.934,173.66,385.864,179.027,385.704,184.387z"/>
<path fill="#FFFFFF" d="M121.486,178.908c-4.958-4.878-12.235-6.228-18.934-6.407c-34.178-0.01-68.366-0.01-102.544,0
	c-0.01,39.257-0.01,78.513,0,117.781c9.027,0,18.054,0,27.081,0c0.02-15.275-0.01-30.541,0.02-45.806
	c24.481-0.011,48.953-0.011,73.435,0c6.978-0.011,14.554-0.95,20.052-5.658c4.659-3.798,6.588-10.017,6.608-15.864
	c0.02-9.357-0.01-18.724,0.01-28.09C127.314,189.125,125.765,182.977,121.486,178.908z M99.813,219.725
	c-1.36,3.729-5.818,4.288-9.247,4.448c-21.153,0.069-42.306,0.01-63.448,0.03c-0.04-10.486-0.03-20.973-0.01-31.449
	c19.144-0.021,38.287,0.01,57.43-0.021c3.999,0.021,8.158-0.229,11.997,1.08c4.219,1.85,4.199,7.139,4.199,11.047
	C100.463,209.798,101.383,214.936,99.813,219.725z"/>
<path fill="#FFFFFF" d="M619.543,220.742c-0.01-5.139-0.08-10.286,0.09-15.426c32.479,0.012,64.959,0.021,97.438-0.01
	c0.139,5.149,0.09,10.297,0.08,15.445c-13.027,0.02-26.043-0.05-39.066,0.03c0.01,23.162,0.02,46.313,0,69.476
	c-6.648,0.012-13.297,0.061-19.936-0.039c0.012-23.162-0.01-46.314,0.012-69.467C645.284,220.742,632.407,220.752,619.543,220.742
	L619.543,220.742z"/>
<path fill="#FFFFFF" d="M234.957,205.619c6.617-0.02,13.235-0.01,19.853-0.01c0.02,28.221,0,56.44,0,84.672
	c-6.618-0.01-13.236,0-19.863-0.01C234.946,262.05,234.937,233.83,234.957,205.619L234.957,205.619z"/>
<path fill="#FFFFFF" d="M194.05,258.195c7.358-0.43,15.216,1.189,22.124-2.09c4.768-2.209,7.597-7.438,7.667-12.586
	c0.11-7.326,0-14.645,0.05-21.972c0.08-4.528-1.399-9.407-5.068-12.306c-4.009-3.219-9.357-3.889-14.325-3.959
	c-24.102,0.039-48.213,0-72.325,0.02c-0.03,28.301,0,56.602-0.01,84.893c6.538,0.029,13.085,0.07,19.633-0.02
	c0.01-10.678-0.05-21.354,0.03-32.021c6.028,0.121,12.076-0.16,18.104,0.11c11.696,10.228,22.652,21.333,34.229,31.71
	c9.537,0.541,19.163,0.221,28.74,0.121C219.922,279.498,206.906,268.941,194.05,258.195z M151.805,243.67
	c-0.04-7.848-0.01-15.704-0.02-23.551c15.255,0.029,30.5-0.031,45.754,0.02c2.909-0.18,6.607,1.039,6.817,4.448
	c0.5,5.108,0.78,10.446-0.24,15.505c-0.879,3.328-4.799,3.338-7.558,3.539C181.645,243.73,166.72,243.641,151.805,243.67z"/>
<path fill="#FFFFFF" d="M623.102,232.695c-5.348-8.977-10.137-18.304-15.785-27.082c-6.277-0.52-12.676-0.389-18.963-0.07
	c-6.258,10.168-11.816,20.783-17.803,31.12c-10.068,17.854-20.234,35.647-30.221,53.542c6.668,0.09,13.336,0.1,20.012,0.01
	c3.23-6.137,6.389-12.305,9.748-18.363c17.812,0.029,35.617,0,53.422,0.01c3.297,6.117,6.758,12.146,9.945,18.324
	c7.527,0.15,15.057,0.09,22.592,0.039C645.104,271.033,634.067,251.889,623.102,232.695z M578.557,256.187
	c6.348-11.246,12.365-22.672,18.693-33.929c5.84,11.377,11.896,22.652,17.885,33.959
	C602.94,256.236,590.743,256.276,578.557,256.187z"/>
<path fill="#FFFFFF" d="M0.02,312.279c239.046-0.01,478.09-0.02,717.125,0c-0.01,1.867,0,3.723,0.02,5.598
	c-239.055,0.041-478.11,0.02-717.165,0.01C0,316.012,0.01,314.146,0.02,312.279L0.02,312.279z"/>
<g>
	<path fill="#FFFFFF" d="M138.85,343.884c0.044-1.8-0.519-4.961,2.191-4.872c3.814,0.155,7.908-0.807,11.522,0.733
		c0.037,1.621,0.022,3.25-0.104,4.871c-3.132,1.948-6.204,3.991-9.492,5.665c2.592,0.148,5.19,0.163,7.782,0.037
		c-0.007-0.475-0.015-1.429-0.015-1.91c0.607,0.14,1.836,0.43,2.451,0.569c0.466,1.452,0.037,2.917-0.792,4.14
		c-4.783,0.073-9.56,0.066-14.335,0.022c0.245-1.229-0.074-2.843,1.266-3.517c3.281-2.297,6.798-4.236,10.189-6.36
		c0.096-0.363,0.289-1.082,0.386-1.438c-2.666-0.214-5.339-0.171-8.005-0.06c0.015,0.859,0.03,1.726,0.052,2.599
		C140.908,344.202,139.878,344.039,138.85,343.884L138.85,343.884z"/>
	<path fill="#FFFFFF" d="M78.651,339.841c1.903-0.57,3.887-0.748,5.85-1.007c0.037,4.775,0.007,9.56,0.015,14.335
		c-1-0.007-1.991-0.007-2.983-0.007c-0.008-3.762-0.008-7.509,0-11.264c-1.06-0.021-2.118-0.036-3.169-0.051
		C78.436,341.344,78.577,340.344,78.651,339.841L78.651,339.841z"/>
	<path fill="#FFFFFF" d="M50.04,345.283c0-3.325-2.955-6.043-6.176-6.242c-3.739-0.214-7.479-0.074-11.218-0.045
		c0.007,4.71,0.007,9.412,0,14.121c4.058-0.029,8.145,0.311,12.181-0.192C48.314,352.34,50.499,348.667,50.04,345.283z
		 M45.627,349.178c-2.918,1.459-6.228,1.192-9.389,1.192c0.007-2.961-0.008-5.916,0.037-8.863c2.799,0.09,5.783-0.325,8.441,0.778
		C47.13,343.75,46.641,346.972,45.627,349.178z"/>
	<path fill="#FFFFFF" d="M110.824,339.938c-1.451-0.681-3.006-1.118-4.628-1.001c-3.325,0.111-6.872-0.532-9.937,1.104
		c-0.459,2.281-0.438,4.628-0.015,6.916c3.695,1.837,7.908,0.866,11.847,0.859c-2.243,3.45-6.612,3.14-10.203,3.222
		c0.57,0.763,1.14,1.518,1.725,2.279c3.213,0.09,6.834,0.104,9.344-2.235C112.126,348.342,111.712,343.617,110.824,339.938z
		 M99.006,344.979c0.022-1.014,0.045-2.021,0.081-3.028c2.94-0.637,5.983-0.577,8.923,0.016c0.052,1.146,0.081,2.302,0.103,3.458
		C105.085,345.387,101.916,346.12,99.006,344.979z"/>
	<path fill="#FFFFFF" d="M131.705,339.745c-3.443-1.348-7.212-0.683-10.811-0.764c-1.918-0.14-4.191,1.215-4.043,3.34
		c-0.2,1.962-0.163,4.575,2.096,5.354c3.339,0.762,6.79,0.199,10.174,0.133c-2.273,3.548-6.842,3.111-10.492,3.28
		c0.94,0.866,1.726,2,2.947,2.532c3.473-0.199,7.552-0.717,9.67-3.864C133.052,346.779,132.689,342.942,131.705,339.745z
		 M120.583,345.564c-0.311-1.155-0.555-2.317-0.725-3.488c2.962-0.548,5.99-0.702,8.974-0.251c0.215,0.984,0.393,1.977,0.548,2.984
		C126.728,346.194,123.478,345.35,120.583,345.564z"/>
	<path fill="#FFFFFF" d="M11.388,338.981c-1.155-0.015-2.303-0.021-3.458-0.007c-2.584,4.746-5.346,9.403-7.93,14.157
		c1.147,0.008,2.31,0.03,3.465,0.052c0.562-1.014,1.125-2.014,1.688-3.021c2.895,0.023,5.783,0.016,8.678,0
		c0.578,1.008,1.163,2.015,1.748,3.028c1.303-0.028,2.614-0.051,3.924-0.073C16.771,348.415,14.083,343.699,11.388,338.981z
		 M6.686,347.305c0.866-1.562,1.622-3.185,2.562-4.694c1.733,0.481,1.977,3.258,3.065,4.688
		C10.44,347.305,8.56,347.305,6.686,347.305z"/>
	<path fill="#FFFFFF" d="M22.725,348.785c1.311-0.037,2.628-0.066,3.947-0.104c0.458,1.474,0.415,3.014,0.029,4.509
		c-1.355-0.021-2.718-0.036-4.072-0.059C22.636,351.681,22.672,350.229,22.725,348.785L22.725,348.785z"/>
	<path fill="#FFFFFF" d="M54.712,353.162c-0.007-1.467,0.022-2.934,0.059-4.392c1.429-0.022,2.858-0.03,4.295-0.014
		c0.03,1.443,0.03,2.887,0,4.346C57.615,353.132,56.163,353.154,54.712,353.162L54.712,353.162z"/>
</g>
</svg>
